<svg id="visual" viewBox="0 0 1920 600" width="1920" height="600" xmlns="http://www.w3.org/2000/svg" xmlns:xlink="http://www.w3.org/1999/xlink" version="1.1"><path d="M1746 600L1804 600L1804 545L1842 545L1842 491L1765 491L1765 436L1785 436L1785 382L1804 382L1804 327L1785 327L1785 273L1842 273L1842 218L1842 218L1842 164L1785 164L1785 109L1842 109L1842 55L1708 55L1708 0L1920 0L1920 55L1920 55L1920 109L1920 109L1920 164L1920 164L1920 218L1920 218L1920 273L1920 273L1920 327L1920 327L1920 382L1920 382L1920 436L1920 436L1920 491L1920 491L1920 545L1920 545L1920 600L1920 600Z" fill="#31cbe5"></path><path d="M1535 600L1535 600L1535 545L1554 545L1554 491L1593 491L1593 436L1612 436L1612 382L1554 382L1554 327L1631 327L1631 273L1554 273L1554 218L1612 218L1612 164L1650 164L1650 109L1497 109L1497 55L1266 55L1266 0L1709 0L1709 55L1843 55L1843 109L1786 109L1786 164L1843 164L1843 218L1843 218L1843 273L1786 273L1786 327L1805 327L1805 382L1786 382L1786 436L1766 436L1766 491L1843 491L1843 545L1805 545L1805 600L1747 600Z" fill="#00a9d0"></path><path d="M1247 600L1228 600L1228 545L882 545L882 491L825 491L825 436L1324 436L1324 382L825 382L825 327L1343 327L1343 273L1266 273L1266 218L863 218L863 164L1228 164L1228 109L825 109L825 55L690 55L690 0L1267 0L1267 55L1498 55L1498 109L1651 109L1651 164L1613 164L1613 218L1555 218L1555 273L1632 273L1632 327L1555 327L1555 382L1613 382L1613 436L1594 436L1594 491L1555 491L1555 545L1536 545L1536 600L1536 600Z" fill="#0087b8"></path><path d="M1036 600L1017 600L1017 545L613 545L613 491L633 491L633 436L1151 436L1151 382L652 382L652 327L1093 327L1093 273L997 273L997 218L652 218L652 164L1093 164L1093 109L729 109L729 55L594 55L594 0L691 0L691 55L826 55L826 109L1229 109L1229 164L864 164L864 218L1267 218L1267 273L1344 273L1344 327L826 327L826 382L1325 382L1325 436L826 436L826 491L883 491L883 545L1229 545L1229 600L1248 600Z" fill="#02669c"></path><path d="M921 600L825 600L825 545L537 545L537 491L537 491L537 436L978 436L978 382L517 382L517 327L863 327L863 273L767 273L767 218L517 218L517 164L863 164L863 109L575 109L575 55L364 55L364 0L595 0L595 55L730 55L730 109L1094 109L1094 164L653 164L653 218L998 218L998 273L1094 273L1094 327L653 327L653 382L1152 382L1152 436L634 436L634 491L614 491L614 545L1018 545L1018 600L1037 600Z" fill="#18467d"></path><path d="M709 600L709 600L709 545L210 545L210 491L325 491L325 436L748 436L748 382L402 382L402 327L729 327L729 273L594 273L594 218L229 218L229 164L575 164L575 109L287 109L287 55L229 55L229 0L365 0L365 55L576 55L576 109L864 109L864 164L518 164L518 218L768 218L768 273L864 273L864 327L518 327L518 382L979 382L979 436L538 436L538 491L538 491L538 545L826 545L826 600L922 600Z" fill="#1d285b"></path><path d="M0 600L0 600L0 545L0 545L0 491L0 491L0 436L0 436L0 382L0 382L0 327L0 327L0 273L0 273L0 218L0 218L0 164L0 164L0 109L0 109L0 55L0 55L0 0L230 0L230 55L288 55L288 109L576 109L576 164L230 164L230 218L595 218L595 273L730 273L730 327L403 327L403 382L749 382L749 436L326 436L326 491L211 491L211 545L710 545L710 600L710 600Z" fill="#1a0b39"></path></svg>