<svg id="visual" viewBox="0 0 1920 600" width="1920" height="600" xmlns="http://www.w3.org/2000/svg" xmlns:xlink="http://www.w3.org/1999/xlink" version="1.1"><path d="M0 441L120 405L240 325L360 399L480 361L600 430L720 470L840 333L960 323L1080 448L1200 396L1320 375L1440 380L1560 490L1680 348L1800 373L1920 375L1920 601L1800 601L1680 601L1560 601L1440 601L1320 601L1200 601L1080 601L960 601L840 601L720 601L600 601L480 601L360 601L240 601L120 601L0 601Z" fill="#8810c9"></path><path d="M0 468L120 386L240 457L360 366L480 511L600 393L720 407L840 374L960 412L1080 391L1200 381L1320 494L1440 468L1560 397L1680 412L1800 433L1920 365L1920 601L1800 601L1680 601L1560 601L1440 601L1320 601L1200 601L1080 601L960 601L840 601L720 601L600 601L480 601L360 601L240 601L120 601L0 601Z" fill="#6e199f"></path><path d="M0 426L120 486L240 474L360 497L480 493L600 514L720 517L840 443L960 524L1080 450L1200 523L1320 424L1440 410L1560 409L1680 508L1800 412L1920 421L1920 601L1800 601L1680 601L1560 601L1440 601L1320 601L1200 601L1080 601L960 601L840 601L720 601L600 601L480 601L360 601L240 601L120 601L0 601Z" fill="#541a76"></path><path d="M0 474L120 472L240 523L360 535L480 467L600 446L720 543L840 452L960 477L1080 459L1200 454L1320 472L1440 445L1560 448L1680 453L1800 453L1920 485L1920 601L1800 601L1680 601L1560 601L1440 601L1320 601L1200 601L1080 601L960 601L840 601L720 601L600 601L480 601L360 601L240 601L120 601L0 601Z" fill="#3c1950"></path><path d="M0 487L120 516L240 555L360 537L480 500L600 491L720 528L840 550L960 482L1080 541L1200 571L1320 519L1440 492L1560 566L1680 504L1800 541L1920 553L1920 601L1800 601L1680 601L1560 601L1440 601L1320 601L1200 601L1080 601L960 601L840 601L720 601L600 601L480 601L360 601L240 601L120 601L0 601Z" fill="#25142d"></path><path d="M0 562L120 558L240 547L360 570L480 563L600 571L720 527L840 534L960 578L1080 543L1200 527L1320 524L1440 527L1560 547L1680 528L1800 537L1920 571L1920 601L1800 601L1680 601L1560 601L1440 601L1320 601L1200 601L1080 601L960 601L840 601L720 601L600 601L480 601L360 601L240 601L120 601L0 601Z" fill="#0a0a0a"></path></svg>