<svg xmlns="http://www.w3.org/2000/svg" version="1.1" xmlns:xlink="http://www.w3.org/1999/xlink" xmlns:svgjs="http://svgjs.com/svgjs" width="400" height="700" preserveAspectRatio="none" viewBox="0 0 400 700"><g mask="url(&quot;#SvgjsMask1035&quot;)" fill="none"><path d="M344.29-75.62C275.55-48.53 315.24 86.66 167.88 161.52 20.52 236.38 69.45 435.1-8.53 483.52" stroke="#1a0b39" stroke-width="2"></path><path d="M353.47-114.98C304.47-99.17 289.6 42.22 221.14 42.82 152.68 43.42 154.97-44.68 88.8-44.68 22.64-44.68-4.05 38.98-43.53 42.82" stroke="#1a0b39" stroke-width="2"></path><path d="M316.91-34.04C227.81 115.72 287.44 584.26 157.67 644.57 27.89 704.88 59.08 463.48-1.58 441.57" stroke="#1a0b39" stroke-width="2"></path><path d="M228.66-133.22C153.67-37.42 183.01 312.05 87.6 332.54-7.81 353.03 2.29 159.7-53.46 136.54" stroke="#1a0b39" stroke-width="2"></path><path d="M229.03-126.23C182.87-20.23 223.2 320.2 150.03 329.42 76.86 338.64 61.07 90.58-7.97 49.42" stroke="#1a0b39" stroke-width="2"></path></g><defs><mask id="SvgjsMask1035"><rect width="400" height="700" fill="#ffffff"></rect></mask></defs></svg>