<?xml version="1.0" encoding="utf-8"?>
<!-- Svg Vector Icons : http://www.onlinewebfonts.com/icon -->
<!DOCTYPE svg PUBLIC "-//W3C//DTD SVG 1.1//EN" "http://www.w3.org/Graphics/SVG/1.1/DTD/svg11.dtd">
<svg version="1.1" xmlns="http://www.w3.org/2000/svg" xmlns:xlink="http://www.w3.org/1999/xlink"  fill="#FFB1C1" x="0px" y="0px" viewBox="0 0 1000 1000" enable-background="new 0 0 1000 1000" xml:space="preserve">
<metadata> Svg Vector Icons : http://www.onlinewebfonts.com/icon </metadata>
<g><g transform="translate(0.000000,430.000000) scale(0.100000,-0.100000)"><path d="M4917.8,4189.1c-27.4-11.4-70.8-50.3-98.2-84.5c-48-61.7-50.3-70.8-43.4-847.5l6.9-783.5l64-61.7c84.5-86.8,221.6-84.5,310.7,2.3l59.4,59.4l6.9,788.1l6.8,785.8l-64,68.5C5098.2,4191.4,4995.4,4221,4917.8,4189.1z"/><path d="M1536.9,2761.3c-84.5-84.5-98.2-159.9-45.7-260.4c59.4-109.7,1069.1-1096.5,1142.2-1114.8c102.8-25.1,223.9,48,260.4,159.9c16,48,22.8,109.6,13.7,137.1c-18.3,59.4-1025.7,1078.2-1110.2,1123.9C1696.8,2859.6,1621.4,2845.8,1536.9,2761.3z"/><path d="M8186.7,2795.6c-127.9-80-1080.5-1060-1098.8-1130.8c-36.6-148.5,134.8-313,285.5-276.4c66.2,16,1080.5,1012,1135.3,1112.5c52.6,100.5,38.8,175.9-45.7,260.4C8374,2850.4,8291.8,2861.8,8186.7,2795.6z"/><path d="M4520.3,1584.9c-881.8-194.2-1542-827-1786.4-1711c-41.1-148.5-50.2-237.6-50.2-575.7c0-438.6,25.1-578,169-920.6c212.4-511.7,715-1014.3,1226.7-1226.7c342.7-143.9,482-169.1,920.6-169.1s577.9,25.1,920.6,169.1c511.7,212.4,1014.3,715,1226.7,1226.7c143.9,342.7,169,482,169,920.6c0,438.6-25.1,577.9-169,920.6c-212.4,511.7-715,1014.3-1226.7,1226.7c-306.1,127.9-488.8,164.5-863.5,173.6C4783,1626,4675.6,1619.1,4520.3,1584.9z M5509.4,1091.5c322.1-93.7,536.8-214.7,779-443.2c244.4-233,404.3-495.7,507.1-840.7c54.8-175.9,61.7-239.9,61.7-509.4c0-269.6-6.8-333.5-61.7-509.4c-98.2-326.7-219.3-539.1-445.5-779c-233-244.4-495.7-404.3-840.6-507.1c-175.9-54.8-239.9-61.7-509.4-61.7s-333.5,6.8-509.4,61.7c-344.9,102.8-607.6,262.7-840.7,507.1c-228.4,242.2-349.5,456.9-443.2,776.7C3017.2-557.9,3195.3,125.2,3684.2,614c281,281,628.2,461.4,1028,534.6C4913.2,1185.1,5285.5,1157.7,5509.4,1091.5z"/><path d="M175.4-539.6c-61.7-54.8-75.4-82.2-75.4-162.2c0-80,13.7-107.4,75.4-162.2l75.4-68.5l785.8,6.9l788.1,6.8l61.7,64c86.8,84.5,84.5,221.6-2.3,310.7l-59.4,59.4l-788.1,6.9l-785.8,6.9L175.4-539.6z"/><path d="M8186.7-493.9c-143.9-59.4-182.7-253.6-70.8-365.5l59.4-59.4l788.1-6.8l785.8-6.9l75.4,68.5c61.7,54.8,75.4,82.3,75.4,162.2c0,80-13.7,107.4-75.4,162.2l-73.1,66.3l-760.7-2.3C8575.1-475.6,8211.8-484.8,8186.7-493.9z"/><path d="M2590-2805.7c-70.8-41.1-1062.2-1030.2-1098.8-1098.8c-52.5-100.5-38.8-175.9,45.7-260.4c84.5-84.5,159.9-98.2,260.4-45.7c105.1,57.1,1096.5,1069.1,1112.5,1139.9c20.6,77.7-25.1,191.9-89.1,233C2749.9-2792,2642.5-2778.3,2590-2805.7z"/><path d="M7199.9-2826.3c-89.1-52.5-139.3-196.5-95.9-278.7c36.6-73.1,1023.4-1064.5,1098.8-1105.7c100.5-52.5,175.9-38.8,260.4,45.7c84.5,84.5,98.2,159.9,45.7,260.4c-41.1,73.1-1032.5,1062.2-1103.3,1098.8C7334.6-2769.2,7282.1-2773.7,7199.9-2826.3z"/><path d="M4940.6-3756c-27.4-4.6-73.1-34.3-102.8-66.3l-54.8-59.4l-6.9-783.5l-6.9-785.8l68.5-75.4c54.8-61.7,82.2-75.4,162.2-75.4s107.4,13.7,162.2,75.4l68.5,75.4l-6.8,785.8l-6.9,788.1l-57.1,54.8C5100.5-3762.9,5020.6-3737.8,4940.6-3756z"/></g></g>
</svg>